<svg width="22" height="22" viewBox="0 0 22 22" fill="none" xmlns="http://www.w3.org/2000/svg">
<rect x="0.5" y="0.5" width="21" height="21" rx="10.5" fill="white"/>
<path d="M14 9H13.5V8C13.5 6.62 12.38 5.5 11 5.5C9.62 5.5 8.5 6.62 8.5 8V9H8C7.45 9 7 9.45 7 10V15C7 15.55 7.45 16 8 16H14C14.55 16 15 15.55 15 15V10C15 9.45 14.55 9 14 9ZM11 13.5C10.45 13.5 10 13.05 10 12.5C10 11.95 10.45 11.5 11 11.5C11.55 11.5 12 11.95 12 12.5C12 13.05 11.55 13.5 11 13.5ZM9.5 9V8C9.5 7.17 10.17 6.5 11 6.5C11.83 6.5 12.5 7.17 12.5 8V9H9.5Z" fill="#323232"/>
<rect x="0.5" y="0.5" width="21" height="21" rx="10.5" stroke="black"/>
</svg>
