<svg width="280" height="280" viewBox="0 0 280 280" fill="none" xmlns="http://www.w3.org/2000/svg">
<g filter="url(#filter0_d_6603_5530)">
<path d="M186 30H94C80.7452 30 70 40.7452 70 54V146C70 159.255 80.7452 170 94 170H186C199.255 170 210 159.255 210 146V54C210 40.7452 199.255 30 186 30Z" fill="url(#paint0_linear_6603_5530)"/>
<path fill-rule="evenodd" clip-rule="evenodd" d="M137.533 78.3396C137.533 72.7546 135.595 68.0426 131.631 64.1156C127.667 60.1886 122.822 58.2686 117.272 58.2686C111.634 58.2686 106.789 60.1886 102.825 64.1156C98.861 68.0426 96.923 72.9296 96.923 78.4266C96.923 83.9246 98.861 88.7236 102.913 92.5636C106.877 96.4906 111.634 98.4106 117.272 98.4106C122.91 98.4106 127.667 96.4906 131.631 92.5636C135.595 88.6366 137.533 83.9246 137.533 78.3396ZM108.727 69.8746C111.106 67.5186 113.925 66.3846 117.272 66.3846C120.62 66.3846 123.439 67.6056 125.817 69.8746C128.196 72.2306 129.341 75.0236 129.341 78.3396C129.341 81.6556 128.196 84.4475 125.817 86.8046C123.439 89.1605 120.62 90.2946 117.272 90.2946C113.925 90.2946 111.106 89.1605 108.727 86.8046C106.349 84.4475 105.204 81.6556 105.204 78.3396C105.204 75.0236 106.349 72.2306 108.727 69.8746Z" fill="white"/>
<path d="M162.199 140.385C156.473 140.036 151.804 138.116 148.104 134.451C144.228 130.611 142.202 124.852 142.202 119.354V118.307C142.202 116.736 142.643 115.602 143.436 114.729C144.228 113.944 145.197 113.507 146.343 113.507C147.488 113.507 148.457 113.944 149.25 114.729C150.042 115.514 150.483 116.649 150.483 118.22V119.965C150.659 122.932 151.804 126.51 154.007 128.604C156.385 130.96 159.204 132.095 162.552 132.095H162.728C166.075 132.095 168.894 130.96 171.273 128.604C173.475 126.51 174.62 122.932 174.796 119.965V118.22C174.796 116.736 175.237 115.602 176.03 114.729C176.822 113.944 177.791 113.507 178.937 113.507C180.082 113.507 181.051 113.944 181.844 114.729C182.636 115.514 183.077 116.736 183.077 118.307V119.354C182.989 124.852 181.051 130.524 177.175 134.451C173.475 138.116 168.806 140.123 163.08 140.385H162.199Z" fill="white"/>
<path d="M105.38 136.109C106.261 136.894 107.318 137.33 108.375 137.33C109.432 137.33 110.577 136.894 111.37 136.109L178.584 69.526C180.258 67.956 180.258 65.338 178.584 63.68C176.999 62.022 174.356 62.022 172.682 63.68L105.38 130.262C103.706 131.833 103.706 134.451 105.38 136.109Z" fill="white"/>
</g>
<defs>
<filter id="filter0_d_6603_5530" x="0" y="0" width="280" height="280" filterUnits="userSpaceOnUse" color-interpolation-filters="sRGB">
<feFlood flood-opacity="0" result="BackgroundImageFix"/>
<feColorMatrix in="SourceAlpha" type="matrix" values="0 0 0 0 0 0 0 0 0 0 0 0 0 0 0 0 0 0 127 0" result="hardAlpha"/>
<feOffset dy="40"/>
<feGaussianBlur stdDeviation="35"/>
<feColorMatrix type="matrix" values="0 0 0 0 0.109804 0 0 0 0 0.709804 0 0 0 0 0.8 0 0 0 0.45 0"/>
<feBlend mode="normal" in2="BackgroundImageFix" result="effect1_dropShadow_6603_5530"/>
<feBlend mode="normal" in="SourceGraphic" in2="effect1_dropShadow_6603_5530" result="shape"/>
</filter>
<linearGradient id="paint0_linear_6603_5530" x1="70" y1="30" x2="210" y2="170" gradientUnits="userSpaceOnUse">
<stop stop-color="#3DAEBF"/>
<stop offset="1" stop-color="#3095B4"/>
</linearGradient>
</defs>
</svg>
