<svg width="22" height="22" viewBox="0 0 22 22" fill="none" xmlns="http://www.w3.org/2000/svg">
<rect x="0.5" y="0.5" width="21" height="21" rx="10.5" fill="#001246"/>
<path d="M12.2151 9.99988L11.4801 7.57988C11.3351 7.10488 10.6651 7.10488 10.5251 7.57988L9.7851 9.99988H7.5601C7.0751 9.99988 6.8751 10.6249 7.2701 10.9049L9.0901 12.2049L8.3751 14.5099C8.2301 14.9749 8.7701 15.3499 9.1551 15.0549L11.0001 13.6549L12.8451 15.0599C13.2301 15.3549 13.7701 14.9799 13.6251 14.5149L12.9101 12.2099L14.7301 10.9099C15.1251 10.6249 14.9251 10.0049 14.4401 10.0049H12.2151V9.99988Z" fill="white"/>
<rect x="0.5" y="0.5" width="21" height="21" rx="10.5" stroke="#001246"/>
</svg>
